%TF.GenerationSoftware,KiCad,Pcbnew,(6.0.10)*%
%TF.CreationDate,2023-01-18T20:55:07+05:30*%
%TF.ProjectId,RDX v2,52445820-7632-42e6-9b69-6361645f7063,rev?*%
%TF.SameCoordinates,Original*%
%TF.FileFunction,Soldermask,Bot*%
%TF.FilePolarity,Negative*%
%FSLAX46Y46*%
G04 Gerber Fmt 4.6, Leading zero omitted, Abs format (unit mm)*
G04 Created by KiCad (PCBNEW (6.0.10)) date 2023-01-18 20:55:07*
%MOMM*%
%LPD*%
G01*
G04 APERTURE LIST*
G04 Aperture macros list*
%AMRoundRect*
0 Rectangle with rounded corners*
0 $1 Rounding radius*
0 $2 $3 $4 $5 $6 $7 $8 $9 X,Y pos of 4 corners*
0 Add a 4 corners polygon primitive as box body*
4,1,4,$2,$3,$4,$5,$6,$7,$8,$9,$2,$3,0*
0 Add four circle primitives for the rounded corners*
1,1,$1+$1,$2,$3*
1,1,$1+$1,$4,$5*
1,1,$1+$1,$6,$7*
1,1,$1+$1,$8,$9*
0 Add four rect primitives between the rounded corners*
20,1,$1+$1,$2,$3,$4,$5,0*
20,1,$1+$1,$4,$5,$6,$7,0*
20,1,$1+$1,$6,$7,$8,$9,0*
20,1,$1+$1,$8,$9,$2,$3,0*%
G04 Aperture macros list end*
%ADD10C,0.150000*%
%ADD11RoundRect,0.444500X-0.444500X-0.444500X0.444500X-0.444500X0.444500X0.444500X-0.444500X0.444500X0*%
%ADD12C,1.778000*%
%ADD13C,1.574800*%
%ADD14C,2.032000*%
%ADD15C,0.800000*%
%ADD16C,6.400000*%
%ADD17RoundRect,0.250000X-0.845000X0.620000X-0.845000X-0.620000X0.845000X-0.620000X0.845000X0.620000X0*%
%ADD18O,2.190000X1.740000*%
%ADD19R,2.200000X2.200000*%
%ADD20O,2.200000X2.200000*%
%ADD21R,1.905000X1.905000*%
%ADD22R,3.302000X3.302000*%
%ADD23C,3.530600*%
%ADD24C,1.524000*%
%ADD25R,1.200000X1.200000*%
%ADD26R,3.200000X3.200000*%
%ADD27O,3.200000X3.200000*%
%ADD28C,1.879600*%
%ADD29C,4.000000*%
%ADD30C,1.800000*%
%ADD31R,1.700000X1.700000*%
%ADD32O,1.700000X1.700000*%
%ADD33RoundRect,0.508000X-0.508000X-0.508000X0.508000X-0.508000X0.508000X0.508000X-0.508000X0.508000X0*%
%ADD34RoundRect,0.476250X-0.476250X-0.476250X0.476250X-0.476250X0.476250X0.476250X-0.476250X0.476250X0*%
%ADD35C,1.905000*%
%ADD36C,3.200000*%
%ADD37RoundRect,0.508000X-0.508000X0.635000X-0.508000X-0.635000X0.508000X-0.635000X0.508000X0.635000X0*%
%ADD38C,2.286000*%
%ADD39RoundRect,0.444500X0.444500X-0.444500X0.444500X0.444500X-0.444500X0.444500X-0.444500X-0.444500X0*%
%ADD40C,1.600000*%
%ADD41R,1.600000X1.600000*%
%ADD42O,1.600000X1.600000*%
%ADD43R,2.000000X1.905000*%
%ADD44O,2.000000X1.905000*%
%ADD45R,1.800000X1.800000*%
%ADD46R,2.540000X1.778000*%
%ADD47C,3.048000*%
%ADD48RoundRect,0.508000X-0.508000X0.508000X-0.508000X-0.508000X0.508000X-0.508000X0.508000X0.508000X0*%
G04 APERTURE END LIST*
D10*
X71069200Y-111887000D02*
X76860400Y-111887000D01*
X76860400Y-111887000D02*
X76860400Y-148564600D01*
X76860400Y-148564600D02*
X71069200Y-148564600D01*
X71069200Y-148564600D02*
X71069200Y-111887000D01*
G36*
X71069200Y-111887000D02*
G01*
X76860400Y-111887000D01*
X76860400Y-148564600D01*
X71069200Y-148564600D01*
X71069200Y-111887000D01*
G37*
D11*
%TO.C,M3*%
X78782000Y-145697750D03*
D12*
X78782000Y-148237750D03*
X78782000Y-150777750D03*
X127448400Y-150777750D03*
X120590400Y-145697750D03*
X127448400Y-153317750D03*
X78782000Y-153317750D03*
X120590400Y-148237750D03*
X120590400Y-153317750D03*
X127448400Y-148237750D03*
X127448400Y-145697750D03*
X120590400Y-150777750D03*
%TD*%
D13*
%TO.C,J3*%
X132461000Y-108585000D03*
%TD*%
D14*
%TO.C,C18*%
X90043000Y-134112000D03*
X85043000Y-134112000D03*
%TD*%
%TO.C,C9*%
X115276000Y-113030000D03*
X110276000Y-113030000D03*
%TD*%
D15*
%TO.C,H3*%
X73914000Y-56528000D03*
X73914000Y-61328000D03*
X75611056Y-57230944D03*
X71514000Y-58928000D03*
X72216944Y-57230944D03*
D16*
X73914000Y-58928000D03*
D15*
X75611056Y-60625056D03*
X72216944Y-60625056D03*
X76314000Y-58928000D03*
%TD*%
D14*
%TO.C,R6*%
X92710000Y-86106000D03*
X87630000Y-86106000D03*
%TD*%
%TO.C,C16*%
X89916000Y-129540000D03*
X84916000Y-129540000D03*
%TD*%
%TO.C,C14*%
X90130000Y-137414000D03*
X85130000Y-137414000D03*
%TD*%
D17*
%TO.C,J6*%
X90531000Y-100330000D03*
D18*
X90531000Y-102870000D03*
X90531000Y-105410000D03*
X90531000Y-107950000D03*
%TD*%
D19*
%TO.C,D8*%
X82031200Y-152781000D03*
D20*
X94731200Y-152781000D03*
%TD*%
D14*
%TO.C,R7*%
X101371400Y-145694400D03*
X106451400Y-145694400D03*
%TD*%
%TO.C,R4*%
X92710000Y-83058000D03*
X87630000Y-83058000D03*
%TD*%
D16*
%TO.C,H1*%
X152908000Y-151511000D03*
D15*
X151210944Y-149813944D03*
X154605056Y-149813944D03*
X152908000Y-149111000D03*
X152908000Y-153911000D03*
X154605056Y-153208056D03*
X155308000Y-151511000D03*
X151210944Y-153208056D03*
X150508000Y-151511000D03*
%TD*%
D21*
%TO.C,C6*%
X125603000Y-128715888D03*
D14*
X125603000Y-131215888D03*
%TD*%
D22*
%TO.C,J12*%
X152273000Y-131699000D03*
D23*
X152273000Y-136779000D03*
%TD*%
D24*
%TO.C,Y1*%
X125330000Y-122839000D03*
X125330000Y-120299000D03*
D25*
X134080000Y-123569000D03*
X134080000Y-119569000D03*
%TD*%
D14*
%TO.C,R12*%
X85217000Y-126238000D03*
X90297000Y-126238000D03*
%TD*%
D21*
%TO.C,C3*%
X107605713Y-125069600D03*
D14*
X105105713Y-125069600D03*
%TD*%
D26*
%TO.C,D7*%
X130683000Y-131826000D03*
D27*
X145923000Y-131826000D03*
%TD*%
D14*
%TO.C,R8*%
X98298000Y-116332000D03*
X98298000Y-121412000D03*
%TD*%
%TO.C,C10*%
X127127000Y-117602000D03*
X132127000Y-117602000D03*
%TD*%
%TO.C,C11*%
X127040000Y-125222000D03*
X132040000Y-125222000D03*
%TD*%
%TO.C,R2*%
X92710000Y-80010000D03*
X87630000Y-80010000D03*
%TD*%
D13*
%TO.C,J1*%
X91694000Y-113030000D03*
%TD*%
D15*
%TO.C,H5*%
X74218800Y-111392000D03*
X75915856Y-112094944D03*
D16*
X74218800Y-113792000D03*
D15*
X71818800Y-113792000D03*
X74218800Y-116192000D03*
X72521744Y-112094944D03*
X75915856Y-115489056D03*
X76618800Y-113792000D03*
X72521744Y-115489056D03*
%TD*%
D21*
%TO.C,C8*%
X109728000Y-119380000D03*
D14*
X109728000Y-121880000D03*
%TD*%
D28*
%TO.C,Q3*%
X78600301Y-138861842D03*
X80733901Y-140335042D03*
X78600301Y-141833642D03*
%TD*%
D14*
%TO.C,C2*%
X112689000Y-126873000D03*
X117689000Y-126873000D03*
%TD*%
%TO.C,C15*%
X104140000Y-117348000D03*
X104140000Y-112348000D03*
%TD*%
D28*
%TO.C,Q6*%
X78727301Y-126161842D03*
X80860901Y-127635042D03*
X78727301Y-129133642D03*
%TD*%
D14*
%TO.C,C12*%
X93740600Y-145643600D03*
X98740600Y-145643600D03*
%TD*%
D13*
%TO.C,J2*%
X110388400Y-126873000D03*
%TD*%
D15*
%TO.C,H2*%
X152908000Y-61455000D03*
X151210944Y-57357944D03*
X154605056Y-57357944D03*
D16*
X152908000Y-59055000D03*
D15*
X155308000Y-59055000D03*
X154605056Y-60752056D03*
X152908000Y-56655000D03*
X150508000Y-59055000D03*
X151210944Y-60752056D03*
%TD*%
D29*
%TO.C,J11*%
X136652000Y-147442000D03*
X146812000Y-147442000D03*
D30*
X141732000Y-142362000D03*
X144272000Y-142362000D03*
%TD*%
D31*
%TO.C,J8*%
X128783000Y-83058000D03*
D32*
X126243000Y-83058000D03*
%TD*%
D28*
%TO.C,Q2*%
X104343158Y-120256301D03*
X102869958Y-122389901D03*
X101371358Y-120256301D03*
%TD*%
D14*
%TO.C,C17*%
X83098000Y-149479000D03*
X88098000Y-149479000D03*
%TD*%
D13*
%TO.C,J5*%
X137617200Y-108762800D03*
%TD*%
D28*
%TO.C,Q5*%
X78765400Y-119811800D03*
X80899000Y-121285000D03*
X78765400Y-122783600D03*
%TD*%
%TO.C,Q4*%
X78727301Y-132511842D03*
X80860901Y-133985042D03*
X78727301Y-135483642D03*
%TD*%
%TO.C,Q1*%
X90982800Y-142214600D03*
X92456000Y-140081000D03*
X93954600Y-142214600D03*
%TD*%
D14*
%TO.C,R1*%
X92710000Y-74041000D03*
X87630000Y-74041000D03*
%TD*%
D33*
%TO.C,M2*%
X96393000Y-64770000D03*
X100203000Y-64770000D03*
D14*
X96393000Y-67310000D03*
X100203000Y-67310000D03*
D33*
X96393000Y-69850000D03*
X100203000Y-69850000D03*
D14*
X96393000Y-72390000D03*
X100203000Y-72390000D03*
X100203000Y-74930000D03*
X96393000Y-74930000D03*
X96393000Y-77470000D03*
X100203000Y-77470000D03*
X96393000Y-80010000D03*
X100203000Y-80010000D03*
D33*
X100203000Y-82550000D03*
X96393000Y-82550000D03*
D14*
X96393000Y-85090000D03*
X100203000Y-85090000D03*
X100203000Y-87630000D03*
X96393000Y-87630000D03*
X100203000Y-90170000D03*
X96393000Y-90170000D03*
X100203000Y-92710000D03*
X96393000Y-92710000D03*
D33*
X100203000Y-95250000D03*
X96393000Y-95250000D03*
D14*
X100203000Y-97790000D03*
X96393000Y-97790000D03*
X100203000Y-100330000D03*
X96393000Y-100330000D03*
X100203000Y-102870000D03*
X96393000Y-102870000D03*
X100203000Y-105410000D03*
X96393000Y-105410000D03*
D33*
X96393000Y-107950000D03*
X100203000Y-107950000D03*
D14*
X96393000Y-110490000D03*
X100203000Y-110490000D03*
X96393000Y-113030000D03*
X100203000Y-113030000D03*
X121793000Y-113030000D03*
X117983000Y-113030000D03*
X121793000Y-110490000D03*
X117983000Y-110490000D03*
D33*
X121793000Y-107950000D03*
X117983000Y-107950000D03*
D14*
X117983000Y-105410000D03*
X121793000Y-105410000D03*
X117983000Y-102870000D03*
X121793000Y-102870000D03*
X121793000Y-100330000D03*
X117983000Y-100330000D03*
X117983000Y-97790000D03*
X121793000Y-97790000D03*
D33*
X117983000Y-95250000D03*
X121793000Y-95250000D03*
D14*
X117983000Y-92710000D03*
X121793000Y-92710000D03*
X117983000Y-90170000D03*
X121793000Y-90170000D03*
X117983000Y-87630000D03*
X121793000Y-87630000D03*
X121793000Y-85090000D03*
X117983000Y-85090000D03*
D34*
X117983000Y-82550000D03*
X121793000Y-82550000D03*
D35*
X121793000Y-80010000D03*
X117983000Y-80010000D03*
D14*
X117983000Y-77470000D03*
X121793000Y-77470000D03*
X121793000Y-74930000D03*
X117983000Y-74930000D03*
X121793000Y-72390000D03*
X117983000Y-72390000D03*
D33*
X117983000Y-69850000D03*
X121793000Y-69850000D03*
D14*
X121793000Y-67310000D03*
X117983000Y-67310000D03*
X117983000Y-64770000D03*
X121793000Y-64770000D03*
%TD*%
%TO.C,R9*%
X107442000Y-116967000D03*
X107442000Y-111887000D03*
%TD*%
D36*
%TO.C,M1*%
X127381000Y-104775000D03*
X152781000Y-104775000D03*
D37*
X147701000Y-104775000D03*
D14*
X145161000Y-104775000D03*
X142621000Y-104775000D03*
X140081000Y-104775000D03*
X137541000Y-104775000D03*
X135001000Y-104775000D03*
X132461000Y-104775000D03*
%TD*%
D31*
%TO.C,J7*%
X126390400Y-67284600D03*
D32*
X126390400Y-64744600D03*
%TD*%
D14*
%TO.C,C5*%
X147715600Y-110185200D03*
X152715600Y-110185200D03*
%TD*%
D15*
%TO.C,H4*%
X73914000Y-153911000D03*
X75611056Y-153208056D03*
X72216944Y-153208056D03*
X71514000Y-151511000D03*
D16*
X73914000Y-151511000D03*
D15*
X76314000Y-151511000D03*
X72216944Y-149813944D03*
X75611056Y-149813944D03*
X73914000Y-149111000D03*
%TD*%
D13*
%TO.C,J4*%
X135026400Y-108635800D03*
%TD*%
D38*
%TO.C,C1*%
X124587000Y-135930000D03*
X124587000Y-140930000D03*
%TD*%
D13*
%TO.C,J9*%
X102793800Y-126720600D03*
%TD*%
D39*
%TO.C,U4*%
X93096000Y-137150000D03*
D12*
X95636000Y-137150000D03*
X98176000Y-137150000D03*
X100716000Y-137150000D03*
X103256000Y-137150000D03*
X105796000Y-137150000D03*
X108336000Y-137150000D03*
X110876000Y-137150000D03*
X113416000Y-137150000D03*
X115956000Y-137150000D03*
X115956000Y-129530000D03*
X113416000Y-129530000D03*
X110876000Y-129530000D03*
X108336000Y-129530000D03*
D40*
X105796000Y-129530000D03*
X103256000Y-129530000D03*
D12*
X100716000Y-129530000D03*
X98176000Y-129530000D03*
X95636000Y-129530000D03*
X93096000Y-129530000D03*
%TD*%
D41*
%TO.C,D6*%
X85217000Y-122809000D03*
D42*
X92837000Y-122809000D03*
%TD*%
D14*
%TO.C,R3*%
X92710000Y-76962000D03*
X87630000Y-76962000D03*
%TD*%
%TO.C,R11*%
X112090200Y-89941400D03*
X112090200Y-95021400D03*
%TD*%
%TO.C,R10*%
X112141000Y-82524600D03*
X112141000Y-87604600D03*
%TD*%
%TO.C,C13*%
X100163000Y-124460000D03*
X95163000Y-124460000D03*
%TD*%
%TO.C,C4*%
X121158000Y-131532000D03*
X121158000Y-126532000D03*
%TD*%
D21*
%TO.C,C7*%
X130138288Y-59766200D03*
D14*
X132638288Y-59766200D03*
%TD*%
%TO.C,C19*%
X111175800Y-104637200D03*
X111175800Y-109637200D03*
%TD*%
D43*
%TO.C,U1*%
X152090000Y-119253000D03*
D44*
X152090000Y-121793000D03*
X152090000Y-124333000D03*
%TD*%
D45*
%TO.C,D1*%
X73782000Y-64643000D03*
D30*
X76322000Y-64643000D03*
%TD*%
D45*
%TO.C,D3*%
X73782000Y-69088000D03*
D30*
X76322000Y-69088000D03*
%TD*%
D45*
%TO.C,D2*%
X73782000Y-73533000D03*
D30*
X76322000Y-73533000D03*
%TD*%
D46*
%TO.C,SW3*%
X81841400Y-104800400D03*
X72641400Y-104800400D03*
%TD*%
D47*
%TO.C,U5*%
X87239000Y-64705000D03*
X131239000Y-64705000D03*
X131239000Y-140785000D03*
X87239000Y-140785000D03*
D48*
X92729000Y-59785000D03*
D14*
X95269000Y-59785000D03*
X97809000Y-59785000D03*
X100349000Y-59785000D03*
X102889000Y-59785000D03*
X105429000Y-59785000D03*
X107969000Y-59785000D03*
X110509000Y-59785000D03*
X113049000Y-59785000D03*
X115589000Y-59785000D03*
X118129000Y-59785000D03*
X120669000Y-59785000D03*
X123209000Y-59785000D03*
X125749000Y-59785000D03*
%TD*%
D45*
%TO.C,D5*%
X73782000Y-82423000D03*
D30*
X76322000Y-82423000D03*
%TD*%
D46*
%TO.C,SW1*%
X81841400Y-91084400D03*
X72641400Y-91084400D03*
%TD*%
D45*
%TO.C,D4*%
X73782000Y-77978000D03*
D30*
X76322000Y-77978000D03*
%TD*%
D46*
%TO.C,SW2*%
X81841400Y-97815400D03*
X72641400Y-97815400D03*
%TD*%
M02*
