%TF.GenerationSoftware,KiCad,Pcbnew,(6.0.10)*%
%TF.CreationDate,2023-01-18T20:55:07+05:30*%
%TF.ProjectId,RDX v2,52445820-7632-42e6-9b69-6361645f7063,rev?*%
%TF.SameCoordinates,Original*%
%TF.FileFunction,Legend,Bot*%
%TF.FilePolarity,Positive*%
%FSLAX46Y46*%
G04 Gerber Fmt 4.6, Leading zero omitted, Abs format (unit mm)*
G04 Created by KiCad (PCBNEW (6.0.10)) date 2023-01-18 20:55:07*
%MOMM*%
%LPD*%
G01*
G04 APERTURE LIST*
%ADD10C,0.150000*%
%ADD11C,0.127000*%
%ADD12C,0.120000*%
G04 APERTURE END LIST*
D10*
%TO.C,D1*%
X78684380Y-63904904D02*
X77684380Y-63904904D01*
X77684380Y-64143000D01*
X77732000Y-64285857D01*
X77827238Y-64381095D01*
X77922476Y-64428714D01*
X78112952Y-64476333D01*
X78255809Y-64476333D01*
X78446285Y-64428714D01*
X78541523Y-64381095D01*
X78636761Y-64285857D01*
X78684380Y-64143000D01*
X78684380Y-63904904D01*
X78684380Y-65428714D02*
X78684380Y-64857285D01*
X78684380Y-65143000D02*
X77684380Y-65143000D01*
X77827238Y-65047761D01*
X77922476Y-64952523D01*
X77970095Y-64857285D01*
%TO.C,D3*%
X78938380Y-68349904D02*
X77938380Y-68349904D01*
X77938380Y-68588000D01*
X77986000Y-68730857D01*
X78081238Y-68826095D01*
X78176476Y-68873714D01*
X78366952Y-68921333D01*
X78509809Y-68921333D01*
X78700285Y-68873714D01*
X78795523Y-68826095D01*
X78890761Y-68730857D01*
X78938380Y-68588000D01*
X78938380Y-68349904D01*
X77938380Y-69254666D02*
X77938380Y-69873714D01*
X78319333Y-69540380D01*
X78319333Y-69683238D01*
X78366952Y-69778476D01*
X78414571Y-69826095D01*
X78509809Y-69873714D01*
X78747904Y-69873714D01*
X78843142Y-69826095D01*
X78890761Y-69778476D01*
X78938380Y-69683238D01*
X78938380Y-69397523D01*
X78890761Y-69302285D01*
X78843142Y-69254666D01*
%TO.C,D2*%
X78562380Y-72794904D02*
X77562380Y-72794904D01*
X77562380Y-73033000D01*
X77610000Y-73175857D01*
X77705238Y-73271095D01*
X77800476Y-73318714D01*
X77990952Y-73366333D01*
X78133809Y-73366333D01*
X78324285Y-73318714D01*
X78419523Y-73271095D01*
X78514761Y-73175857D01*
X78562380Y-73033000D01*
X78562380Y-72794904D01*
X77657619Y-73747285D02*
X77610000Y-73794904D01*
X77562380Y-73890142D01*
X77562380Y-74128238D01*
X77610000Y-74223476D01*
X77657619Y-74271095D01*
X77752857Y-74318714D01*
X77848095Y-74318714D01*
X77990952Y-74271095D01*
X78562380Y-73699666D01*
X78562380Y-74318714D01*
D11*
%TO.C,SW3*%
X78375166Y-107979400D02*
X78248248Y-108021706D01*
X78036719Y-108021706D01*
X77952107Y-107979400D01*
X77909801Y-107937094D01*
X77867495Y-107852482D01*
X77867495Y-107767870D01*
X77909801Y-107683258D01*
X77952107Y-107640952D01*
X78036719Y-107598647D01*
X78205942Y-107556341D01*
X78290554Y-107514035D01*
X78332860Y-107471729D01*
X78375166Y-107387117D01*
X78375166Y-107302505D01*
X78332860Y-107217893D01*
X78290554Y-107175587D01*
X78205942Y-107133281D01*
X77994413Y-107133281D01*
X77867495Y-107175587D01*
X77571353Y-107133281D02*
X77359823Y-108021706D01*
X77190600Y-107387117D01*
X77021376Y-108021706D01*
X76809846Y-107133281D01*
X76556010Y-107133281D02*
X76006033Y-107133281D01*
X76302175Y-107471729D01*
X76175257Y-107471729D01*
X76090645Y-107514035D01*
X76048339Y-107556341D01*
X76006033Y-107640952D01*
X76006033Y-107852482D01*
X76048339Y-107937094D01*
X76090645Y-107979400D01*
X76175257Y-108021706D01*
X76429092Y-108021706D01*
X76513704Y-107979400D01*
X76556010Y-107937094D01*
D10*
%TO.C,U5*%
X132080095Y-59475619D02*
X132080095Y-58666095D01*
X132127714Y-58570857D01*
X132175333Y-58523238D01*
X132270571Y-58475619D01*
X132461047Y-58475619D01*
X132556285Y-58523238D01*
X132603904Y-58570857D01*
X132651523Y-58666095D01*
X132651523Y-59475619D01*
X133603904Y-59475619D02*
X133127714Y-59475619D01*
X133080095Y-58999428D01*
X133127714Y-59047047D01*
X133222952Y-59094666D01*
X133461047Y-59094666D01*
X133556285Y-59047047D01*
X133603904Y-58999428D01*
X133651523Y-58904190D01*
X133651523Y-58666095D01*
X133603904Y-58570857D01*
X133556285Y-58523238D01*
X133461047Y-58475619D01*
X133222952Y-58475619D01*
X133127714Y-58523238D01*
X133080095Y-58570857D01*
%TO.C,D5*%
X78684380Y-81684904D02*
X77684380Y-81684904D01*
X77684380Y-81923000D01*
X77732000Y-82065857D01*
X77827238Y-82161095D01*
X77922476Y-82208714D01*
X78112952Y-82256333D01*
X78255809Y-82256333D01*
X78446285Y-82208714D01*
X78541523Y-82161095D01*
X78636761Y-82065857D01*
X78684380Y-81923000D01*
X78684380Y-81684904D01*
X77684380Y-83161095D02*
X77684380Y-82684904D01*
X78160571Y-82637285D01*
X78112952Y-82684904D01*
X78065333Y-82780142D01*
X78065333Y-83018238D01*
X78112952Y-83113476D01*
X78160571Y-83161095D01*
X78255809Y-83208714D01*
X78493904Y-83208714D01*
X78589142Y-83161095D01*
X78636761Y-83113476D01*
X78684380Y-83018238D01*
X78684380Y-82780142D01*
X78636761Y-82684904D01*
X78589142Y-82637285D01*
D11*
%TO.C,SW1*%
X78425966Y-94238000D02*
X78299048Y-94280306D01*
X78087519Y-94280306D01*
X78002907Y-94238000D01*
X77960601Y-94195694D01*
X77918295Y-94111082D01*
X77918295Y-94026470D01*
X77960601Y-93941858D01*
X78002907Y-93899552D01*
X78087519Y-93857247D01*
X78256742Y-93814941D01*
X78341354Y-93772635D01*
X78383660Y-93730329D01*
X78425966Y-93645717D01*
X78425966Y-93561105D01*
X78383660Y-93476493D01*
X78341354Y-93434187D01*
X78256742Y-93391881D01*
X78045213Y-93391881D01*
X77918295Y-93434187D01*
X77622153Y-93391881D02*
X77410623Y-94280306D01*
X77241400Y-93645717D01*
X77072176Y-94280306D01*
X76860646Y-93391881D01*
X76056833Y-94280306D02*
X76564504Y-94280306D01*
X76310669Y-94280306D02*
X76310669Y-93391881D01*
X76395280Y-93518799D01*
X76479892Y-93603411D01*
X76564504Y-93645717D01*
D10*
%TO.C,D4*%
X78557380Y-77366904D02*
X77557380Y-77366904D01*
X77557380Y-77605000D01*
X77605000Y-77747857D01*
X77700238Y-77843095D01*
X77795476Y-77890714D01*
X77985952Y-77938333D01*
X78128809Y-77938333D01*
X78319285Y-77890714D01*
X78414523Y-77843095D01*
X78509761Y-77747857D01*
X78557380Y-77605000D01*
X78557380Y-77366904D01*
X77890714Y-78795476D02*
X78557380Y-78795476D01*
X77509761Y-78557380D02*
X78224047Y-78319285D01*
X78224047Y-78938333D01*
D11*
%TO.C,SW2*%
X78222766Y-100969000D02*
X78095848Y-101011306D01*
X77884319Y-101011306D01*
X77799707Y-100969000D01*
X77757401Y-100926694D01*
X77715095Y-100842082D01*
X77715095Y-100757470D01*
X77757401Y-100672858D01*
X77799707Y-100630552D01*
X77884319Y-100588247D01*
X78053542Y-100545941D01*
X78138154Y-100503635D01*
X78180460Y-100461329D01*
X78222766Y-100376717D01*
X78222766Y-100292105D01*
X78180460Y-100207493D01*
X78138154Y-100165187D01*
X78053542Y-100122881D01*
X77842013Y-100122881D01*
X77715095Y-100165187D01*
X77418953Y-100122881D02*
X77207423Y-101011306D01*
X77038200Y-100376717D01*
X76868976Y-101011306D01*
X76657446Y-100122881D01*
X76361304Y-100207493D02*
X76318998Y-100165187D01*
X76234386Y-100122881D01*
X76022857Y-100122881D01*
X75938245Y-100165187D01*
X75895939Y-100207493D01*
X75853633Y-100292105D01*
X75853633Y-100376717D01*
X75895939Y-100503635D01*
X76403610Y-101011306D01*
X75853633Y-101011306D01*
D12*
%TO.C,D1*%
X73492000Y-63563000D02*
X73492000Y-63407000D01*
X73492000Y-65879000D02*
X73492000Y-65723000D01*
X74011039Y-65723000D02*
G75*
G03*
X76093130Y-65722837I1040961J1080000D01*
G01*
X76093130Y-63563163D02*
G75*
G03*
X74011039Y-63563000I-1041130J-1079837D01*
G01*
X73492000Y-65878516D02*
G75*
G03*
X76724335Y-65721608I1560000J1235516D01*
G01*
X76724335Y-63564392D02*
G75*
G03*
X73492000Y-63407484I-1672335J-1078608D01*
G01*
%TO.C,D3*%
X73492000Y-68008000D02*
X73492000Y-67852000D01*
X73492000Y-70324000D02*
X73492000Y-70168000D01*
X76724335Y-68009392D02*
G75*
G03*
X73492000Y-67852484I-1672335J-1078608D01*
G01*
X73492000Y-70323516D02*
G75*
G03*
X76724335Y-70166608I1560000J1235516D01*
G01*
X76093130Y-68008163D02*
G75*
G03*
X74011039Y-68008000I-1041130J-1079837D01*
G01*
X74011039Y-70168000D02*
G75*
G03*
X76093130Y-70167837I1040961J1080000D01*
G01*
%TO.C,D2*%
X73492000Y-72453000D02*
X73492000Y-72297000D01*
X73492000Y-74769000D02*
X73492000Y-74613000D01*
X76724335Y-72454392D02*
G75*
G03*
X73492000Y-72297484I-1672335J-1078608D01*
G01*
X73492000Y-74768516D02*
G75*
G03*
X76724335Y-74611608I1560000J1235516D01*
G01*
X76093130Y-72453163D02*
G75*
G03*
X74011039Y-72453000I-1041130J-1079837D01*
G01*
X74011039Y-74613000D02*
G75*
G03*
X76093130Y-74612837I1040961J1080000D01*
G01*
D11*
%TO.C,SW3*%
X74241400Y-106550400D02*
X74241400Y-103050400D01*
X80241400Y-106550400D02*
X74241400Y-106550400D01*
X74241400Y-103050400D02*
X80241400Y-103050400D01*
X80241400Y-103050400D02*
X80241400Y-106550400D01*
D12*
%TO.C,U5*%
X134239000Y-57785000D02*
X83947000Y-57785000D01*
X83947000Y-57785000D02*
X83947000Y-143891000D01*
X83947000Y-143891000D02*
X134239000Y-143891000D01*
X134239000Y-143891000D02*
X134239000Y-57785000D01*
%TO.C,D5*%
X73492000Y-83659000D02*
X73492000Y-83503000D01*
X73492000Y-81343000D02*
X73492000Y-81187000D01*
X74011039Y-83503000D02*
G75*
G03*
X76093130Y-83502837I1040961J1080000D01*
G01*
X76093130Y-81343163D02*
G75*
G03*
X74011039Y-81343000I-1041130J-1079837D01*
G01*
X76724335Y-81344392D02*
G75*
G03*
X73492000Y-81187484I-1672335J-1078608D01*
G01*
X73492000Y-83658516D02*
G75*
G03*
X76724335Y-83501608I1560000J1235516D01*
G01*
D11*
%TO.C,SW1*%
X80241400Y-92834400D02*
X74241400Y-92834400D01*
X80241400Y-89334400D02*
X80241400Y-92834400D01*
X74241400Y-92834400D02*
X74241400Y-89334400D01*
X74241400Y-89334400D02*
X80241400Y-89334400D01*
D12*
%TO.C,D4*%
X73492000Y-76898000D02*
X73492000Y-76742000D01*
X73492000Y-79214000D02*
X73492000Y-79058000D01*
X76093130Y-76898163D02*
G75*
G03*
X74011039Y-76898000I-1041130J-1079837D01*
G01*
X73492000Y-79213516D02*
G75*
G03*
X76724335Y-79056608I1560000J1235516D01*
G01*
X76724335Y-76899392D02*
G75*
G03*
X73492000Y-76742484I-1672335J-1078608D01*
G01*
X74011039Y-79058000D02*
G75*
G03*
X76093130Y-79057837I1040961J1080000D01*
G01*
D11*
%TO.C,SW2*%
X80241400Y-96065400D02*
X80241400Y-99565400D01*
X80241400Y-99565400D02*
X74241400Y-99565400D01*
X74241400Y-96065400D02*
X80241400Y-96065400D01*
X74241400Y-99565400D02*
X74241400Y-96065400D01*
%TD*%
M02*
