%TF.GenerationSoftware,KiCad,Pcbnew,(6.0.10)*%
%TF.CreationDate,2023-01-18T20:55:07+05:30*%
%TF.ProjectId,RDX v2,52445820-7632-42e6-9b69-6361645f7063,rev?*%
%TF.SameCoordinates,Original*%
%TF.FileFunction,Soldermask,Top*%
%TF.FilePolarity,Negative*%
%FSLAX46Y46*%
G04 Gerber Fmt 4.6, Leading zero omitted, Abs format (unit mm)*
G04 Created by KiCad (PCBNEW (6.0.10)) date 2023-01-18 20:55:07*
%MOMM*%
%LPD*%
G01*
G04 APERTURE LIST*
G04 Aperture macros list*
%AMRoundRect*
0 Rectangle with rounded corners*
0 $1 Rounding radius*
0 $2 $3 $4 $5 $6 $7 $8 $9 X,Y pos of 4 corners*
0 Add a 4 corners polygon primitive as box body*
4,1,4,$2,$3,$4,$5,$6,$7,$8,$9,$2,$3,0*
0 Add four circle primitives for the rounded corners*
1,1,$1+$1,$2,$3*
1,1,$1+$1,$4,$5*
1,1,$1+$1,$6,$7*
1,1,$1+$1,$8,$9*
0 Add four rect primitives between the rounded corners*
20,1,$1+$1,$2,$3,$4,$5,0*
20,1,$1+$1,$4,$5,$6,$7,0*
20,1,$1+$1,$6,$7,$8,$9,0*
20,1,$1+$1,$8,$9,$2,$3,0*%
%AMFreePoly0*
4,1,22,0.500000,-0.750000,0.000000,-0.750000,0.000000,-0.745033,-0.079941,-0.743568,-0.215256,-0.701293,-0.333266,-0.622738,-0.424486,-0.514219,-0.481581,-0.384460,-0.499164,-0.250000,-0.500000,-0.250000,-0.500000,0.250000,-0.499164,0.250000,-0.499963,0.256109,-0.478152,0.396186,-0.417904,0.524511,-0.324060,0.630769,-0.204165,0.706417,-0.067858,0.745374,0.000000,0.744959,0.000000,0.750000,
0.500000,0.750000,0.500000,-0.750000,0.500000,-0.750000,$1*%
%AMFreePoly1*
4,1,20,0.000000,0.744959,0.073905,0.744508,0.209726,0.703889,0.328688,0.626782,0.421226,0.519385,0.479903,0.390333,0.500000,0.250000,0.500000,-0.250000,0.499851,-0.262216,0.476331,-0.402017,0.414519,-0.529596,0.319384,-0.634700,0.198574,-0.708877,0.061801,-0.746166,0.000000,-0.745033,0.000000,-0.750000,-0.500000,-0.750000,-0.500000,0.750000,0.000000,0.750000,0.000000,0.744959,
0.000000,0.744959,$1*%
G04 Aperture macros list end*
%ADD10C,0.150000*%
%ADD11RoundRect,0.444500X-0.444500X-0.444500X0.444500X-0.444500X0.444500X0.444500X-0.444500X0.444500X0*%
%ADD12C,1.778000*%
%ADD13C,1.574800*%
%ADD14C,2.032000*%
%ADD15C,0.800000*%
%ADD16C,6.400000*%
%ADD17FreePoly0,270.000000*%
%ADD18FreePoly1,270.000000*%
%ADD19RoundRect,0.250000X-0.845000X0.620000X-0.845000X-0.620000X0.845000X-0.620000X0.845000X0.620000X0*%
%ADD20O,2.190000X1.740000*%
%ADD21R,2.200000X2.200000*%
%ADD22O,2.200000X2.200000*%
%ADD23R,1.905000X1.905000*%
%ADD24R,3.302000X3.302000*%
%ADD25C,3.530600*%
%ADD26C,1.524000*%
%ADD27R,1.200000X1.200000*%
%ADD28R,10.500000X3.200000*%
%ADD29R,0.800000X1.300000*%
%ADD30R,1.016000X1.900000*%
%ADD31R,1.905000X1.900000*%
%ADD32R,3.200000X3.200000*%
%ADD33O,3.200000X3.200000*%
%ADD34C,1.879600*%
%ADD35C,4.000000*%
%ADD36C,1.800000*%
%ADD37R,1.700000X1.700000*%
%ADD38O,1.700000X1.700000*%
%ADD39RoundRect,0.508000X-0.508000X-0.508000X0.508000X-0.508000X0.508000X0.508000X-0.508000X0.508000X0*%
%ADD40RoundRect,0.476250X-0.476250X-0.476250X0.476250X-0.476250X0.476250X0.476250X-0.476250X0.476250X0*%
%ADD41C,1.905000*%
%ADD42C,3.200000*%
%ADD43RoundRect,0.508000X-0.508000X0.635000X-0.508000X-0.635000X0.508000X-0.635000X0.508000X0.635000X0*%
%ADD44C,2.286000*%
%ADD45RoundRect,0.444500X0.444500X-0.444500X0.444500X0.444500X-0.444500X0.444500X-0.444500X-0.444500X0*%
%ADD46C,1.600000*%
%ADD47R,1.600000X1.600000*%
%ADD48O,1.600000X1.600000*%
%ADD49R,1.905000X1.143000*%
%ADD50R,2.032000X3.683000*%
%ADD51R,2.000000X1.905000*%
%ADD52O,2.000000X1.905000*%
%ADD53R,1.800000X1.800000*%
%ADD54C,3.048000*%
%ADD55RoundRect,0.508000X-0.508000X0.508000X-0.508000X-0.508000X0.508000X-0.508000X0.508000X0.508000X0*%
G04 APERTURE END LIST*
D10*
X71018400Y-111912400D02*
X76809600Y-111912400D01*
X76809600Y-111912400D02*
X76809600Y-148590000D01*
X76809600Y-148590000D02*
X71018400Y-148590000D01*
X71018400Y-148590000D02*
X71018400Y-111912400D01*
G36*
X71018400Y-111912400D02*
G01*
X76809600Y-111912400D01*
X76809600Y-148590000D01*
X71018400Y-148590000D01*
X71018400Y-111912400D01*
G37*
D11*
%TO.C,M3*%
X78782000Y-145697750D03*
D12*
X78782000Y-148237750D03*
X78782000Y-150777750D03*
X127448400Y-150777750D03*
X120590400Y-145697750D03*
X127448400Y-153317750D03*
X78782000Y-153317750D03*
X120590400Y-148237750D03*
X120590400Y-153317750D03*
X127448400Y-148237750D03*
X127448400Y-145697750D03*
X120590400Y-150777750D03*
%TD*%
D13*
%TO.C,J3*%
X132461000Y-108585000D03*
%TD*%
D14*
%TO.C,C18*%
X90043000Y-134112000D03*
X85043000Y-134112000D03*
%TD*%
%TO.C,C9*%
X115276000Y-113030000D03*
X110276000Y-113030000D03*
%TD*%
D15*
%TO.C,H3*%
X73914000Y-56528000D03*
X73914000Y-61328000D03*
X75611056Y-57230944D03*
X71514000Y-58928000D03*
X72216944Y-57230944D03*
D16*
X73914000Y-58928000D03*
D15*
X75611056Y-60625056D03*
X72216944Y-60625056D03*
X76314000Y-58928000D03*
%TD*%
D14*
%TO.C,R6*%
X92710000Y-86106000D03*
X87630000Y-86106000D03*
%TD*%
D17*
%TO.C,J10*%
X95377000Y-116302000D03*
D18*
X95377000Y-117602000D03*
%TD*%
D14*
%TO.C,C16*%
X89916000Y-129540000D03*
X84916000Y-129540000D03*
%TD*%
%TO.C,C14*%
X90130000Y-137414000D03*
X85130000Y-137414000D03*
%TD*%
D19*
%TO.C,J6*%
X90531000Y-100330000D03*
D20*
X90531000Y-102870000D03*
X90531000Y-105410000D03*
X90531000Y-107950000D03*
%TD*%
D21*
%TO.C,D8*%
X82031200Y-152781000D03*
D22*
X94731200Y-152781000D03*
%TD*%
D14*
%TO.C,R7*%
X101371400Y-145694400D03*
X106451400Y-145694400D03*
%TD*%
%TO.C,R4*%
X92710000Y-83058000D03*
X87630000Y-83058000D03*
%TD*%
D16*
%TO.C,H1*%
X152908000Y-151511000D03*
D15*
X151210944Y-149813944D03*
X154605056Y-149813944D03*
X152908000Y-149111000D03*
X152908000Y-153911000D03*
X154605056Y-153208056D03*
X155308000Y-151511000D03*
X151210944Y-153208056D03*
X150508000Y-151511000D03*
%TD*%
D23*
%TO.C,C6*%
X125603000Y-128715888D03*
D14*
X125603000Y-131215888D03*
%TD*%
D24*
%TO.C,J12*%
X152273000Y-131699000D03*
D25*
X152273000Y-136779000D03*
%TD*%
D26*
%TO.C,Y1*%
X125330000Y-122839000D03*
X125330000Y-120299000D03*
D27*
X134080000Y-123569000D03*
X134080000Y-119569000D03*
D28*
X134080000Y-121569000D03*
%TD*%
D14*
%TO.C,R12*%
X85217000Y-126238000D03*
X90297000Y-126238000D03*
%TD*%
D29*
%TO.C,U2*%
X113609200Y-124104800D03*
X114889200Y-124104800D03*
X116149200Y-124104800D03*
X117419200Y-124104800D03*
X118699200Y-124104800D03*
X119969200Y-124104800D03*
X121229200Y-124104800D03*
X122509200Y-124104800D03*
X122509200Y-117804800D03*
X121229200Y-117804800D03*
X119969200Y-117804800D03*
X118699200Y-117804800D03*
X117419200Y-117804800D03*
X116149200Y-117804800D03*
X114889200Y-117804800D03*
X113609200Y-117804800D03*
%TD*%
D23*
%TO.C,C3*%
X107605713Y-125069600D03*
D14*
X105105713Y-125069600D03*
%TD*%
D30*
%TO.C,D9*%
X97322600Y-152706200D03*
X99222600Y-152706200D03*
D31*
X98272600Y-149706200D03*
%TD*%
D32*
%TO.C,D7*%
X130683000Y-131826000D03*
D33*
X145923000Y-131826000D03*
%TD*%
D14*
%TO.C,R8*%
X98298000Y-116332000D03*
X98298000Y-121412000D03*
%TD*%
%TO.C,C10*%
X127127000Y-117602000D03*
X132127000Y-117602000D03*
%TD*%
%TO.C,C11*%
X127040000Y-125222000D03*
X132040000Y-125222000D03*
%TD*%
%TO.C,R2*%
X92710000Y-80010000D03*
X87630000Y-80010000D03*
%TD*%
D13*
%TO.C,J1*%
X91694000Y-113030000D03*
%TD*%
D15*
%TO.C,H5*%
X74218800Y-111392000D03*
X75915856Y-112094944D03*
D16*
X74218800Y-113792000D03*
D15*
X71818800Y-113792000D03*
X74218800Y-116192000D03*
X72521744Y-112094944D03*
X75915856Y-115489056D03*
X76618800Y-113792000D03*
X72521744Y-115489056D03*
%TD*%
D23*
%TO.C,C8*%
X109728000Y-119380000D03*
D14*
X109728000Y-121880000D03*
%TD*%
D34*
%TO.C,Q3*%
X78600301Y-138861842D03*
X80733901Y-140335042D03*
X78600301Y-141833642D03*
%TD*%
D14*
%TO.C,C2*%
X112689000Y-126873000D03*
X117689000Y-126873000D03*
%TD*%
%TO.C,C15*%
X104140000Y-117348000D03*
X104140000Y-112348000D03*
%TD*%
D34*
%TO.C,Q6*%
X78727301Y-126161842D03*
X80860901Y-127635042D03*
X78727301Y-129133642D03*
%TD*%
D14*
%TO.C,C12*%
X93740600Y-145643600D03*
X98740600Y-145643600D03*
%TD*%
D13*
%TO.C,J2*%
X110388400Y-126873000D03*
%TD*%
D15*
%TO.C,H2*%
X152908000Y-61455000D03*
X151210944Y-57357944D03*
X154605056Y-57357944D03*
D16*
X152908000Y-59055000D03*
D15*
X155308000Y-59055000D03*
X154605056Y-60752056D03*
X152908000Y-56655000D03*
X150508000Y-59055000D03*
X151210944Y-60752056D03*
%TD*%
D35*
%TO.C,J11*%
X136652000Y-147442000D03*
X146812000Y-147442000D03*
D36*
X141732000Y-142362000D03*
X144272000Y-142362000D03*
%TD*%
D37*
%TO.C,J8*%
X128783000Y-83058000D03*
D38*
X126243000Y-83058000D03*
%TD*%
D34*
%TO.C,Q2*%
X104343158Y-120256301D03*
X102869958Y-122389901D03*
X101371358Y-120256301D03*
%TD*%
D14*
%TO.C,C17*%
X83098000Y-149479000D03*
X88098000Y-149479000D03*
%TD*%
D13*
%TO.C,J5*%
X137617200Y-108762800D03*
%TD*%
D34*
%TO.C,Q5*%
X78765400Y-119811800D03*
X80899000Y-121285000D03*
X78765400Y-122783600D03*
%TD*%
%TO.C,Q4*%
X78727301Y-132511842D03*
X80860901Y-133985042D03*
X78727301Y-135483642D03*
%TD*%
%TO.C,Q1*%
X90982800Y-142214600D03*
X92456000Y-140081000D03*
X93954600Y-142214600D03*
%TD*%
D14*
%TO.C,R1*%
X92710000Y-74041000D03*
X87630000Y-74041000D03*
%TD*%
D39*
%TO.C,M2*%
X96393000Y-64770000D03*
X100203000Y-64770000D03*
D14*
X96393000Y-67310000D03*
X100203000Y-67310000D03*
D39*
X96393000Y-69850000D03*
X100203000Y-69850000D03*
D14*
X96393000Y-72390000D03*
X100203000Y-72390000D03*
X100203000Y-74930000D03*
X96393000Y-74930000D03*
X96393000Y-77470000D03*
X100203000Y-77470000D03*
X96393000Y-80010000D03*
X100203000Y-80010000D03*
D39*
X100203000Y-82550000D03*
X96393000Y-82550000D03*
D14*
X96393000Y-85090000D03*
X100203000Y-85090000D03*
X100203000Y-87630000D03*
X96393000Y-87630000D03*
X100203000Y-90170000D03*
X96393000Y-90170000D03*
X100203000Y-92710000D03*
X96393000Y-92710000D03*
D39*
X100203000Y-95250000D03*
X96393000Y-95250000D03*
D14*
X100203000Y-97790000D03*
X96393000Y-97790000D03*
X100203000Y-100330000D03*
X96393000Y-100330000D03*
X100203000Y-102870000D03*
X96393000Y-102870000D03*
X100203000Y-105410000D03*
X96393000Y-105410000D03*
D39*
X96393000Y-107950000D03*
X100203000Y-107950000D03*
D14*
X96393000Y-110490000D03*
X100203000Y-110490000D03*
X96393000Y-113030000D03*
X100203000Y-113030000D03*
X121793000Y-113030000D03*
X117983000Y-113030000D03*
X121793000Y-110490000D03*
X117983000Y-110490000D03*
D39*
X121793000Y-107950000D03*
X117983000Y-107950000D03*
D14*
X117983000Y-105410000D03*
X121793000Y-105410000D03*
X117983000Y-102870000D03*
X121793000Y-102870000D03*
X121793000Y-100330000D03*
X117983000Y-100330000D03*
X117983000Y-97790000D03*
X121793000Y-97790000D03*
D39*
X117983000Y-95250000D03*
X121793000Y-95250000D03*
D14*
X117983000Y-92710000D03*
X121793000Y-92710000D03*
X117983000Y-90170000D03*
X121793000Y-90170000D03*
X117983000Y-87630000D03*
X121793000Y-87630000D03*
X121793000Y-85090000D03*
X117983000Y-85090000D03*
D40*
X117983000Y-82550000D03*
X121793000Y-82550000D03*
D41*
X121793000Y-80010000D03*
X117983000Y-80010000D03*
D14*
X117983000Y-77470000D03*
X121793000Y-77470000D03*
X121793000Y-74930000D03*
X117983000Y-74930000D03*
X121793000Y-72390000D03*
X117983000Y-72390000D03*
D39*
X117983000Y-69850000D03*
X121793000Y-69850000D03*
D14*
X121793000Y-67310000D03*
X117983000Y-67310000D03*
X117983000Y-64770000D03*
X121793000Y-64770000D03*
%TD*%
%TO.C,R9*%
X107442000Y-116967000D03*
X107442000Y-111887000D03*
%TD*%
D42*
%TO.C,M1*%
X127381000Y-104775000D03*
X152781000Y-104775000D03*
D43*
X147701000Y-104775000D03*
D14*
X145161000Y-104775000D03*
X142621000Y-104775000D03*
X140081000Y-104775000D03*
X137541000Y-104775000D03*
X135001000Y-104775000D03*
X132461000Y-104775000D03*
%TD*%
D37*
%TO.C,J7*%
X126390400Y-67284600D03*
D38*
X126390400Y-64744600D03*
%TD*%
D14*
%TO.C,C5*%
X147715600Y-110185200D03*
X152715600Y-110185200D03*
%TD*%
D15*
%TO.C,H4*%
X73914000Y-153911000D03*
X75611056Y-153208056D03*
X72216944Y-153208056D03*
X71514000Y-151511000D03*
D16*
X73914000Y-151511000D03*
D15*
X76314000Y-151511000D03*
X72216944Y-149813944D03*
X75611056Y-149813944D03*
X73914000Y-149111000D03*
%TD*%
D13*
%TO.C,J4*%
X135026400Y-108635800D03*
%TD*%
D44*
%TO.C,C1*%
X124587000Y-135930000D03*
X124587000Y-140930000D03*
%TD*%
D13*
%TO.C,J9*%
X102793800Y-126720600D03*
%TD*%
D45*
%TO.C,U4*%
X93096000Y-137150000D03*
D12*
X95636000Y-137150000D03*
X98176000Y-137150000D03*
X100716000Y-137150000D03*
X103256000Y-137150000D03*
X105796000Y-137150000D03*
X108336000Y-137150000D03*
X110876000Y-137150000D03*
X113416000Y-137150000D03*
X115956000Y-137150000D03*
X115956000Y-129530000D03*
X113416000Y-129530000D03*
X110876000Y-129530000D03*
X108336000Y-129530000D03*
D46*
X105796000Y-129530000D03*
X103256000Y-129530000D03*
D12*
X100716000Y-129530000D03*
X98176000Y-129530000D03*
X95636000Y-129530000D03*
X93096000Y-129530000D03*
%TD*%
D47*
%TO.C,D6*%
X85217000Y-122809000D03*
D48*
X92837000Y-122809000D03*
%TD*%
D14*
%TO.C,R3*%
X92710000Y-76962000D03*
X87630000Y-76962000D03*
%TD*%
%TO.C,R11*%
X112090200Y-89941400D03*
X112090200Y-95021400D03*
%TD*%
%TO.C,R10*%
X112141000Y-82524600D03*
X112141000Y-87604600D03*
%TD*%
%TO.C,C13*%
X100163000Y-124460000D03*
X95163000Y-124460000D03*
%TD*%
%TO.C,C4*%
X121158000Y-131532000D03*
X121158000Y-126532000D03*
%TD*%
D23*
%TO.C,C7*%
X130138288Y-59766200D03*
D14*
X132638288Y-59766200D03*
%TD*%
D49*
%TO.C,U3*%
X80771600Y-57390000D03*
X80771600Y-59690000D03*
D50*
X87071600Y-59690000D03*
D49*
X80771600Y-61990000D03*
%TD*%
D14*
%TO.C,C19*%
X111175800Y-104637200D03*
X111175800Y-109637200D03*
%TD*%
D51*
%TO.C,U1*%
X152090000Y-119253000D03*
D52*
X152090000Y-121793000D03*
X152090000Y-124333000D03*
%TD*%
D53*
%TO.C,D1*%
X73782000Y-64643000D03*
D36*
X76322000Y-64643000D03*
%TD*%
D53*
%TO.C,D3*%
X73782000Y-69088000D03*
D36*
X76322000Y-69088000D03*
%TD*%
D53*
%TO.C,D2*%
X73782000Y-73533000D03*
D36*
X76322000Y-73533000D03*
%TD*%
D54*
%TO.C,U5*%
X87239000Y-64705000D03*
X131239000Y-64705000D03*
X131239000Y-140785000D03*
X87239000Y-140785000D03*
D55*
X92729000Y-59785000D03*
D14*
X95269000Y-59785000D03*
X97809000Y-59785000D03*
X100349000Y-59785000D03*
X102889000Y-59785000D03*
X105429000Y-59785000D03*
X107969000Y-59785000D03*
X110509000Y-59785000D03*
X113049000Y-59785000D03*
X115589000Y-59785000D03*
X118129000Y-59785000D03*
X120669000Y-59785000D03*
X123209000Y-59785000D03*
X125749000Y-59785000D03*
%TD*%
D53*
%TO.C,D5*%
X73782000Y-82423000D03*
D36*
X76322000Y-82423000D03*
%TD*%
D53*
%TO.C,D4*%
X73782000Y-77978000D03*
D36*
X76322000Y-77978000D03*
%TD*%
M02*
