M48
; DRILL file {KiCad (6.0.10)} date Wed Jan 18 20:55:12 2023
; FORMAT={-:-/ absolute / inch / decimal}
; #@! TF.CreationDate,2023-01-18T20:55:12+05:30
; #@! TF.GenerationSoftware,Kicad,Pcbnew,(6.0.10)
; #@! TF.FileFunction,Plated,1,2,PTH
FMAT,2
INCH
; #@! TA.AperFunction,Plated,PTH,ViaDrill
T1C0.0157
; #@! TA.AperFunction,Plated,PTH,ComponentDrill
T2C0.0197
; #@! TA.AperFunction,Plated,PTH,ComponentDrill
T3C0.0310
; #@! TA.AperFunction,Plated,PTH,ComponentDrill
T4C0.0315
; #@! TA.AperFunction,Plated,PTH,ComponentDrill
T5C0.0320
; #@! TA.AperFunction,Plated,PTH,ComponentDrill
T6C0.0350
; #@! TA.AperFunction,Plated,PTH,ComponentDrill
T7C0.0354
; #@! TA.AperFunction,Plated,PTH,ComponentDrill
T8C0.0394
; #@! TA.AperFunction,Plated,PTH,ComponentDrill
T9C0.0433
; #@! TA.AperFunction,Plated,PTH,ComponentDrill
T10C0.0469
; #@! TA.AperFunction,Plated,PTH,ComponentDrill
T11C0.0598
; #@! TA.AperFunction,Plated,PTH,ComponentDrill
T12C0.0630
; #@! TA.AperFunction,Plated,PTH,ComponentDrill
T13C0.0827
; #@! TA.AperFunction,Plated,PTH,ComponentDrill
T14C0.1260
%
G90
G05
T1
X2.848Y-4.623
X2.85Y-4.713
X2.85Y-4.786
X2.85Y-4.872
X2.853Y-4.95
X2.853Y-5.023
X2.853Y-5.109
X2.853Y-5.186
X2.853Y-5.259
X2.853Y-5.345
X2.856Y-5.429
X2.856Y-5.502
X2.856Y-5.588
X2.856Y-5.663
X2.856Y-5.736
X2.856Y-5.822
X2.877Y-4.277
X2.955Y-4.622
X2.955Y-4.713
X2.956Y-4.787
X2.957Y-4.871
X2.958Y-4.95
X2.958Y-5.186
X2.959Y-5.024
X2.959Y-5.26
X2.96Y-5.108
X2.96Y-5.344
X2.961Y-5.429
X2.961Y-5.663
X2.962Y-5.503
X2.962Y-5.737
X2.963Y-5.587
X2.963Y-5.821
X3.027Y-3.378
X3.211Y-4.238
X3.229Y-3.728
X3.229Y-4.517
X3.232Y-3.987
X3.254Y-3.373
X3.362Y-3.706
X3.397Y-4.153
X3.574Y-3.689
X3.582Y-2.478
X3.582Y-2.669
X3.626Y-5.921
X3.765Y-5.198
X3.845Y-5.587
X4.007Y-5.944
X4.06Y-3.72
X4.075Y-4.248
X4.104Y-5.578
X4.248Y-3.569
X4.249Y-4.05
X4.264Y-5.944
X4.321Y-3.5025
X4.366Y-5.575
X4.497Y-4.1035
X4.515Y-3.3805
X4.535Y-5.54
X4.54Y-4.145
X4.583Y-4.694
X4.599Y-5.984
X4.6243Y-4.57
X4.7105Y-4.7005
X4.871Y-4.52
X4.876Y-4.639
X4.99Y-4.275
X4.99Y-4.515
X5.009Y-3.618
X5.009Y-3.881
X5.1338Y-4.7862
X5.143Y-2.767
X5.143Y-3.011
X5.148Y-3.461
X5.176Y-5.905
X5.185Y-5.367
X5.198Y-4.528
X5.217Y-3.627
X5.218Y-3.877
X5.391Y-2.316
X5.391Y-2.56
X5.393Y-2.764
X5.394Y-3.251
X5.401Y-4.92
X5.415Y-2.928
X5.425Y-3.627
X5.426Y-4.779
X5.428Y-5.365
X5.479Y-3.874
X5.56Y-3.457
X5.572Y-5.953
X5.576Y-5.743
X5.598Y-4.542
X5.648Y-4.763
X5.648Y-4.922
X5.685Y-3.874
X5.709Y-5.362
X5.712Y-2.319
X5.714Y-2.767
X5.715Y-2.56
X5.717Y-3.008
X5.718Y-3.251
X5.755Y-3.615
X5.872Y-3.454
X5.922Y-4.494
X5.991Y-2.769
X5.992Y-2.562
X5.994Y-3.01
X5.995Y-3.253
X5.995Y-5.596
X5.995Y-5.779
X6.032Y-3.618
X6.035Y-3.819
T2
X2.8155Y-2.32
X2.8155Y-5.965
X2.8275Y-4.48
X2.8432Y-2.2532
X2.8432Y-2.3868
X2.8432Y-5.8982
X2.8432Y-6.0318
X2.8552Y-4.4132
X2.8552Y-4.5468
X2.91Y-2.2255
X2.91Y-2.4145
X2.91Y-5.8705
X2.91Y-6.0595
X2.922Y-4.3855
X2.922Y-4.5745
X2.9768Y-2.2532
X2.9768Y-2.3868
X2.9768Y-5.8982
X2.9768Y-6.0318
X2.9888Y-4.4132
X2.9888Y-4.5468
X3.0045Y-2.32
X3.0045Y-5.965
X3.0165Y-4.48
X4.9343Y-4.7362
X4.9343Y-4.8362
X5.9255Y-2.325
X5.9255Y-5.965
X5.9532Y-2.2582
X5.9532Y-2.3918
X5.9532Y-5.8982
X5.9532Y-6.0318
X6.02Y-2.2305
X6.02Y-2.4195
X6.02Y-5.8705
X6.02Y-6.0595
X6.0868Y-2.2582
X6.0868Y-2.3918
X6.0868Y-5.8982
X6.0868Y-6.0318
X6.1145Y-2.325
X6.1145Y-5.965
T3
X3.1017Y-5.7361
X3.1017Y-5.8361
X3.1017Y-5.9361
X3.1017Y-6.0361
X3.2716Y-5.885
X3.3431Y-5.1
X3.3481Y-5.28
X3.3516Y-5.41
X3.355Y-4.97
X3.45Y-2.915
X3.45Y-3.03
X3.45Y-3.15
X3.45Y-3.27
X3.45Y-3.39
X3.4684Y-5.885
X3.54Y-5.1
X3.545Y-5.28
X3.5484Y-5.41
X3.555Y-4.97
X3.61Y-4.45
X3.65Y-2.915
X3.65Y-3.03
X3.65Y-3.15
X3.65Y-3.27
X3.65Y-3.39
X3.6507Y-2.3537
X3.6652Y-5.0996
X3.6652Y-5.3996
X3.6906Y-5.734
X3.7466Y-4.9
X3.7507Y-2.3537
X3.7652Y-5.0996
X3.7652Y-5.3996
X3.8507Y-2.3537
X3.8652Y-5.0996
X3.8652Y-5.3996
X3.87Y-4.58
X3.87Y-4.78
X3.8874Y-5.734
X3.9434Y-4.9
X3.9507Y-2.3537
X3.9652Y-5.0996
X3.9652Y-5.3996
X3.991Y-5.736
X4.047Y-4.989
X4.0507Y-2.3537
X4.0652Y-5.0996
X4.0652Y-5.3996
X4.1Y-4.4231
X4.1Y-4.62
X4.138Y-4.924
X4.1507Y-2.3537
X4.1652Y-5.0996
X4.1652Y-5.3996
X4.191Y-5.736
X4.23Y-4.405
X4.23Y-4.605
X4.2364Y-4.924
X4.2507Y-2.3537
X4.2652Y-5.0996
X4.2652Y-5.3996
X4.32Y-4.7
X4.32Y-4.7984
X4.3416Y-4.45
X4.346Y-4.995
X4.3507Y-2.3537
X4.3652Y-5.0996
X4.3652Y-5.3996
X4.377Y-4.1196
X4.377Y-4.3164
X4.413Y-3.541
X4.413Y-3.741
X4.415Y-3.249
X4.415Y-3.449
X4.4366Y-4.995
X4.4507Y-2.3537
X4.4652Y-5.0996
X4.4652Y-5.3996
X4.5384Y-4.45
X4.5507Y-2.3537
X4.5652Y-5.0996
X4.5652Y-5.3996
X4.6334Y-4.995
X4.6507Y-2.3537
X4.7477Y-5.7361
X4.7477Y-5.8361
X4.7477Y-5.9361
X4.7477Y-6.0361
X4.7507Y-2.3537
X4.77Y-4.9816
X4.77Y-5.1784
X4.8507Y-2.3537
X4.945Y-5.0676
X4.945Y-5.166
X4.9507Y-2.3537
X5.0016Y-4.93
X5.005Y-4.63
X5.0177Y-5.7361
X5.0177Y-5.8361
X5.0177Y-5.9361
X5.0177Y-6.0361
X5.1236Y-2.353
X5.1984Y-4.93
X5.2019Y-4.63
X5.215Y-4.125
X5.215Y-4.275
X5.222Y-2.353
X5.315Y-4.125
X5.316Y-4.277
X5.415Y-4.125
X5.418Y-4.282
X5.515Y-4.125
X5.615Y-4.125
X5.715Y-4.125
X5.815Y-4.125
X5.8156Y-4.338
X6.0124Y-4.338
T4
X3.355Y-4.835
X3.655Y-4.835
X5.2787Y-4.7074
X5.2787Y-4.8649
T5
X3.0945Y-5.467
X3.0945Y-5.584
X3.0995Y-4.967
X3.0995Y-5.084
X3.0995Y-5.217
X3.0995Y-5.334
X3.101Y-4.717
X3.101Y-4.834
X3.1785Y-5.525
X3.1835Y-5.025
X3.1835Y-5.275
X3.185Y-4.775
X3.582Y-5.599
X3.64Y-5.515
X3.699Y-5.599
X3.991Y-4.7345
X4.05Y-4.8185
X4.108Y-4.7345
T6
X4.905Y-5.3516
X4.905Y-5.5484
T7
X2.9048Y-2.545
X2.9048Y-2.72
X2.9048Y-2.895
X2.9048Y-3.07
X2.9048Y-3.245
X3.0048Y-2.545
X3.0048Y-2.72
X3.0048Y-2.895
X3.0048Y-3.07
X3.0048Y-3.245
T8
X3.795Y-2.55
X3.795Y-2.65
X3.795Y-2.75
X3.795Y-2.85
X3.795Y-2.95
X3.795Y-3.05
X3.795Y-3.15
X3.795Y-3.25
X3.795Y-3.35
X3.795Y-3.45
X3.795Y-3.55
X3.795Y-3.65
X3.795Y-3.75
X3.795Y-3.85
X3.795Y-3.95
X3.795Y-4.05
X3.795Y-4.15
X3.795Y-4.25
X3.795Y-4.35
X3.795Y-4.45
X3.945Y-2.55
X3.945Y-2.65
X3.945Y-2.75
X3.945Y-2.85
X3.945Y-2.95
X3.945Y-3.05
X3.945Y-3.15
X3.945Y-3.25
X3.945Y-3.35
X3.945Y-3.45
X3.945Y-3.55
X3.945Y-3.65
X3.945Y-3.75
X3.945Y-3.85
X3.945Y-3.95
X3.945Y-4.05
X3.945Y-4.15
X3.945Y-4.25
X3.945Y-4.35
X3.945Y-4.45
X4.645Y-2.55
X4.645Y-2.65
X4.645Y-2.75
X4.645Y-2.85
X4.645Y-2.95
X4.645Y-3.05
X4.645Y-3.15
X4.645Y-3.25
X4.645Y-3.35
X4.645Y-3.45
X4.645Y-3.55
X4.645Y-3.65
X4.645Y-3.75
X4.645Y-3.85
X4.645Y-3.95
X4.645Y-4.05
X4.645Y-4.15
X4.645Y-4.25
X4.645Y-4.35
X4.645Y-4.45
X4.795Y-2.55
X4.795Y-2.65
X4.795Y-2.75
X4.795Y-2.85
X4.795Y-2.95
X4.795Y-3.05
X4.795Y-3.15
X4.795Y-3.25
X4.795Y-3.35
X4.795Y-3.45
X4.795Y-3.55
X4.795Y-3.65
X4.795Y-3.75
X4.795Y-3.85
X4.795Y-3.95
X4.795Y-4.05
X4.795Y-4.15
X4.795Y-4.25
X4.795Y-4.35
X4.795Y-4.45
X4.9702Y-3.27
X4.976Y-2.549
X4.976Y-2.649
X5.0702Y-3.27
X5.58Y-5.6048
X5.68Y-5.6048
T9
X3.2296Y-6.015
X3.7296Y-6.015
X5.9878Y-4.695
X5.9878Y-4.795
X5.9878Y-4.895
T10
X3.5642Y-3.95
X3.5642Y-4.05
X3.5642Y-4.15
X3.5642Y-4.25
T11
X5.995Y-5.185
X5.995Y-5.385
T12
X5.145Y-5.19
X5.745Y-5.19
T13
X5.38Y-5.8048
X5.78Y-5.8048
T14
X2.91Y-2.32
X2.91Y-5.965
X2.922Y-4.48
X6.02Y-2.325
X6.02Y-5.965
T0
M30
